<?xml version="1.0" standalone="no"?><!DOCTYPE svg PUBLIC "-//W3C//DTD SVG 1.1//EN" "http://www.w3.org/Graphics/SVG/1.1/DTD/svg11.dtd"><svg t="1581666649504" class="icon" viewBox="0 0 1024 1024" version="1.1" xmlns="http://www.w3.org/2000/svg" p-id="7728" xmlns:xlink="http://www.w3.org/1999/xlink" width="200" height="200"><defs><style type="text/css"></style></defs><path d="M656 240V16H144v992h736V240z" fill="#AED796" p-id="7729"></path><path d="M656 16v224h224z" fill="#87C174" p-id="7730"></path><path d="M895.904 239.824a15.536 15.536 0 0 0-4.464-10.48L666.656 4.56a15.376 15.376 0 0 0-10.336-4.432L656 0H160a32 32 0 0 0-32 32v960a32 32 0 0 0 32 32h704a32 32 0 0 0 32-32V240.432 240l-0.096-0.176zM672 54.096L841.904 224H672V54.096zM864 992H160V32h480v224h224v736zM580.352 393.232l-91.12 91.12a32.24 32.24 0 0 0 0 45.568l22.336 22.336-23.328 23.328-22.336-22.336a32.24 32.24 0 0 0-45.568 0l-91.12 91.12a32.24 32.24 0 0 0 0 45.568l68.336 68.336a32.208 32.208 0 0 0 45.568 0l91.104-91.104a32.208 32.208 0 0 0 0-45.568l-22.336-22.352 23.312-23.312 22.352 22.336a32.208 32.208 0 0 0 45.568 0l91.104-91.104a32.208 32.208 0 0 0 0-45.568l-68.336-68.336a32.16 32.16 0 0 0-45.536-0.032z m-68.144 251.312l-91.664 91.664-68.752-68.752 91.664-91.664 22.304 22.304-13.12 13.104a16.72 16.72 0 1 0 23.664 23.648l13.104-13.104 22.8 22.8z m68.336-68.336l-22.816-22.816 13.104-13.12a16.72 16.72 0 0 0-23.648-23.648l-13.104 13.12-22.304-22.304 91.664-91.664 68.752 68.752-91.648 91.68z" fill="#2B3139" p-id="7731"></path></svg>