<?xml version="1.0" standalone="no"?><!DOCTYPE svg PUBLIC "-//W3C//DTD SVG 1.1//EN" "http://www.w3.org/Graphics/SVG/1.1/DTD/svg11.dtd"><svg t="1581666623075" class="icon" viewBox="0 0 1024 1024" version="1.1" xmlns="http://www.w3.org/2000/svg" p-id="6531" xmlns:xlink="http://www.w3.org/1999/xlink" width="200" height="200"><defs><style type="text/css"></style></defs><path d="M160 112h704v896H160z" fill="#CFAA93" p-id="6532"></path><path d="M240 240v672h384l160-160V240z" fill="#EDF2F9" p-id="6533"></path><path d="M624 752v160l160-160z" fill="#D0D6DF" p-id="6534"></path><path d="M256 928h368l0.32-0.128a15.504 15.504 0 0 0 10.336-4.432l160.784-160.784a15.424 15.424 0 0 0 4.464-10.48L800 752V256a32 32 0 0 0-32-32H256a32 32 0 0 0-32 32v640a32 32 0 0 0 32 32z m384-54.096V768h105.904L640 873.904zM256 256h512v480H608v160H256V256z m80 144h352a16 16 0 1 0 0-32H336a16 16 0 1 0 0 32z m0 96h352a16 16 0 1 0 0-32H336a16 16 0 1 0 0 32z m0 96h352a16 16 0 1 0 0-32H336a16 16 0 1 0 0 32z m176 64H336a16 16 0 1 0 0 32h176a16 16 0 1 0 0-32zM848 96H176a32 32 0 0 0-32 32v864a32 32 0 0 0 32 32h672a32 32 0 0 0 32-32V128a32 32 0 0 0-32-32z m0 896H176V128h672v864z" fill="#2B3139" p-id="6535"></path><path d="M672 176h-80V96c0-44.192-35.808-80-80-80s-80 35.808-80 80v80h-80a48 48 0 0 0-48 48v64h416v-64a48 48 0 0 0-48-48z" fill="#C8E8FA" p-id="6536"></path><path d="M672 160h-64V96a96 96 0 0 0-192 0v64h-64a64 64 0 0 0-64 64v80h448v-80a64 64 0 0 0-64-64z m32 80v32H320v-48a32 32 0 0 1 32-32h96V96a64 64 0 0 1 128 0v96h96a32 32 0 0 1 32 32v16zM512 64a32 32 0 1 0 0.016 64.016A32 32 0 0 0 512 64z" fill="#2B3139" p-id="6537"></path></svg>