<?xml version="1.0" standalone="no"?><!DOCTYPE svg PUBLIC "-//W3C//DTD SVG 1.1//EN" "http://www.w3.org/Graphics/SVG/1.1/DTD/svg11.dtd"><svg t="1581666658458" class="icon" viewBox="0 0 1024 1024" version="1.1" xmlns="http://www.w3.org/2000/svg" p-id="8126" xmlns:xlink="http://www.w3.org/1999/xlink" width="200" height="200"><defs><style type="text/css"></style></defs><path d="M656 240V16H144v992h736V240z" fill="#F48284" p-id="8127"></path><path d="M656 16v224h224z" fill="#D56060" p-id="8128"></path><path d="M895.904 239.824a15.536 15.536 0 0 0-4.464-10.48L666.656 4.56a15.376 15.376 0 0 0-10.336-4.432L656 0H160a32 32 0 0 0-32 32v960a32 32 0 0 0 32 32h704a32 32 0 0 0 32-32V240.432 240l-0.096-0.176zM672 54.096L841.904 224H672V54.096zM864 992H160V32h480v224h224v736zM619.488 468.512a16.112 16.112 0 0 0-22.784 0l-84.768 84.784-83.808-83.808a16 16 0 1 0-22.64 22.64l83.808 83.808-84.272 84.272a16.064 16.064 0 0 0 0 22.768c6.288 6.304 16.48 6.304 22.768 0l84.272-84.272 83.808 83.808c6.256 6.24 16.384 6.24 22.64 0 6.24-6.256 6.24-16.384 0-22.64l-83.808-83.808 84.784-84.768a16.16 16.16 0 0 0 0-22.784z" fill="#2B3139" p-id="8129"></path></svg>