<?xml version="1.0" standalone="no"?><!DOCTYPE svg PUBLIC "-//W3C//DTD SVG 1.1//EN" "http://www.w3.org/Graphics/SVG/1.1/DTD/svg11.dtd"><svg t="1581666583501" class="icon" viewBox="0 0 1024 1024" version="1.1" xmlns="http://www.w3.org/2000/svg" p-id="4930" xmlns:xlink="http://www.w3.org/1999/xlink" width="200" height="200"><defs><style type="text/css"></style></defs><path d="M112 16h736v992H112z" fill="#A0DAF7" p-id="4931"></path><path d="M896 128h-32V32a32 32 0 0 0-32-32H128a32 32 0 0 0-32 32v960a32 32 0 0 0 32 32h704a32 32 0 0 0 32-32V416h32a32 32 0 0 0 32-32V160a32 32 0 0 0-32-32z m-64 0H448a32 32 0 0 0-32 32v224a32 32 0 0 0 32 32h384v576H128V32h704v96z m-128 512H256v32h448v-32z m0-96H256v32h448v-32z m0 192H256v32h448v-32z m-208 96H256v32h240v-32z" fill="#2B3139" p-id="4932"></path><path d="M448 160h448v224H448z" fill="#FFFFFF" p-id="4933"></path><path d="M489.152 213.824h57.712c38.064 0 51.504 28.144 51.504 56.928 0 35.008-18.56 57.248-58.368 57.248h-50.848v-114.176z m35.184 84.912h13.744c21.904 0 25.104-17.744 25.104-28.464 0-7.184-2.24-27.168-27.664-27.168h-11.184v55.632zM668.16 211.104c34.704 0 57.888 24.944 57.888 59.792s-23.184 59.808-57.888 59.808-57.888-24.96-57.888-59.808 23.184-59.792 57.888-59.792z m0 91.152c8.96 0 22.704-5.904 22.704-31.344 0-25.424-13.744-31.344-22.704-31.344s-22.704 5.92-22.704 31.344 13.744 31.344 22.704 31.344zM812.96 256.352c-0.64-4.16-3.84-16.8-18.384-16.8-16.464 0-21.744 16-21.744 31.344 0 15.36 5.28 31.344 21.744 31.344 11.824 0 16.464-8.32 18.544-19.024h34.528c0 23.024-18.704 47.504-52.128 47.504-36.944 0-57.888-26.064-57.888-59.808 0-35.968 22.72-59.792 57.888-59.792 31.344 0.16 48.608 16.624 51.664 45.248H812.96z" fill="#2B3139" p-id="4934"></path></svg>