<?xml version="1.0" standalone="no"?><!DOCTYPE svg PUBLIC "-//W3C//DTD SVG 1.1//EN" "http://www.w3.org/Graphics/SVG/1.1/DTD/svg11.dtd"><svg t="1581666661613" class="icon" viewBox="0 0 1024 1024" version="1.1" xmlns="http://www.w3.org/2000/svg" p-id="8258" xmlns:xlink="http://www.w3.org/1999/xlink" width="200" height="200"><defs><style type="text/css"></style></defs><path d="M896 32H320v96h-96v96H128v768h576v-96h96v-96h96z" fill="#EDF2F9" p-id="8259"></path><path d="M560 592H272v32h288v-32zM880 16H336a32 32 0 0 0-32 32v64h-64a32 32 0 0 0-32 32v64H144a32 32 0 0 0-32 32v736a32 32 0 0 0 32 32h544a32 32 0 0 0 32-32v-64h64a32 32 0 0 0 32-32v-64h64a32 32 0 0 0 32-32V48a32 32 0 0 0-32-32zM688 976H144V240h544v736z m96-96h-64V240a32 32 0 0 0-32-32H240V144h544v736z m96-96h-64V144a32 32 0 0 0-32-32H336V48h544v736zM560 496H272v32h288v-32z m0 192H272v32h288v-32z" fill="#2B3139" p-id="8260"></path></svg>