<?xml version="1.0" standalone="no"?><!DOCTYPE svg PUBLIC "-//W3C//DTD SVG 1.1//EN" "http://www.w3.org/Graphics/SVG/1.1/DTD/svg11.dtd"><svg t="1581666625686" class="icon" viewBox="0 0 1024 1024" version="1.1" xmlns="http://www.w3.org/2000/svg" p-id="6666" xmlns:xlink="http://www.w3.org/1999/xlink" width="200" height="200"><defs><style type="text/css"></style></defs><path d="M160 80h704v160H160z" fill="#F48284" p-id="6667"></path><path d="M160 240h704v768H160z" fill="#EDF2F9" p-id="6668"></path><path d="M848 64h-80V16a16 16 0 1 0-32 0v48h-64V16a16 16 0 1 0-32 0v48h-64V16a16 16 0 1 0-32 0v48h-64V16a16 16 0 1 0-32 0v48h-64V16a16 16 0 1 0-32 0v48h-64V16a16 16 0 1 0-32 0v48h-80a32 32 0 0 0-32 32v896a32 32 0 0 0 32 32h672a32 32 0 0 0 32-32V96a32 32 0 0 0-32-32z m0 192v96H288v-96h560zM256 512v96h-80v-96h80z m-80-32v-96h80v96h-80z m80 160v96h-80v-96h80z m32 0h560v96H288v-96z m0-32v-96h560v96H288z m0-128v-96h560v96H288z m-32-128h-80v-96h80v96z m-80 416h80v96h-80v-96z m112 0h560v96H288v-96zM256 96v48a16 16 0 1 0 32 0V96h64v48a16 16 0 1 0 32 0V96h64v48a16 16 0 1 0 32 0V96h64v48a16 16 0 1 0 32 0V96h64v48a16 16 0 1 0 32 0V96h64v48a16 16 0 1 0 32 0V96h80v128H176V96h80z m-80 800h80v96h-80v-96z m112 96v-96h560v96H288z" fill="#2B3139" p-id="6669"></path></svg>