<?xml version="1.0" standalone="no"?><!DOCTYPE svg PUBLIC "-//W3C//DTD SVG 1.1//EN" "http://www.w3.org/Graphics/SVG/1.1/DTD/svg11.dtd"><svg t="1581666638351" class="icon" viewBox="0 0 1024 1024" version="1.1" xmlns="http://www.w3.org/2000/svg" p-id="7196" xmlns:xlink="http://www.w3.org/1999/xlink" width="200" height="200"><defs><style type="text/css"></style></defs><path d="M144 16v992h736V16H144z m144 832a48 48 0 1 1 0-96 48 48 0 0 1 0 96z m0-192a48 48 0 1 1 0-96 48 48 0 0 1 0 96z m0-192a48 48 0 1 1 0-96 48 48 0 0 1 0 96z m0-192a48 48 0 1 1 0-96 48 48 0 0 1 0 96z" fill="#EDF2F9" p-id="7197"></path><path d="M288 736a64 64 0 1 0 0 128 64 64 0 0 0 0-128z m0 96a32 32 0 1 1 0.016-64.016A32 32 0 0 1 288 832z m0-480a64 64 0 1 0 0 128 64 64 0 0 0 0-128z m0 96a32 32 0 1 1 0.016-64.016A32 32 0 0 1 288 448z m0-288a64 64 0 1 0 0 128 64 64 0 0 0 0-128z m0 96a32 32 0 1 1 0.016-64.016A32 32 0 0 1 288 256z m0 288a64 64 0 1 0 0 128 64 64 0 0 0 0-128z m0 96a32 32 0 1 1 0.016-64.016A32 32 0 0 1 288 640zM864 0H160a32 32 0 0 0-32 32v960a32 32 0 0 0 32 32h704a32 32 0 0 0 32-32V32a32 32 0 0 0-32-32z m0 208H352v32h512v160H352v32h512v160H352v32h512v160H352v32h512v176H160V816h64v-32h-64V624h64v-32h-64V432h64v-32h-64V240h64v-32h-64V32h704v176z" fill="#2B3139" p-id="7198"></path></svg>