<?xml version="1.0" standalone="no"?><!DOCTYPE svg PUBLIC "-//W3C//DTD SVG 1.1//EN" "http://www.w3.org/Graphics/SVG/1.1/DTD/svg11.dtd"><svg t="1581666619140" class="icon" viewBox="0 0 1024 1024" version="1.1" xmlns="http://www.w3.org/2000/svg" p-id="6397" xmlns:xlink="http://www.w3.org/1999/xlink" width="200" height="200"><defs><style type="text/css"></style></defs><path d="M656 240V16H144v992h736V240z" fill="#FBBD9B" p-id="6398"></path><path d="M656 16v224h224z" fill="#F09170" p-id="6399"></path><path d="M336 576h352v256H336z" fill="#FEEB9E" p-id="6400"></path><path d="M512 704m-32 0a32 32 0 1 0 64 0 32 32 0 1 0-64 0Z" fill="#C2CDDC" p-id="6401"></path><path d="M624 512a112 112 0 1 0-224 0v48h-48a32 32 0 0 0-32 32v224a32 32 0 0 0 32 32h320a32 32 0 0 0 32-32V592a32 32 0 0 0-32-32h-48v-48z m-192 0c0-44.192 35.808-80 80-80s80 35.808 80 80v48H432v-48z m240 80v224H352V592h320z m223.904-352.176a15.536 15.536 0 0 0-4.464-10.48L666.656 4.56a15.376 15.376 0 0 0-10.336-4.432L656 0H160a32 32 0 0 0-32 32v960a32 32 0 0 0 32 32h704a32 32 0 0 0 32-32V240.432 240l-0.096-0.176zM672 54.096L841.904 224H672V54.096zM864 992H160V32h480v224h224v736zM512 752a48 48 0 1 0 0-96 48 48 0 0 0 0 96z m0-64a16 16 0 1 1 0 32 16 16 0 1 1 0-32z" fill="#2B3139" p-id="6402"></path></svg>