<?xml version="1.0" standalone="no"?><!DOCTYPE svg PUBLIC "-//W3C//DTD SVG 1.1//EN" "http://www.w3.org/Graphics/SVG/1.1/DTD/svg11.dtd"><svg t="1581666596535" class="icon" viewBox="0 0 1024 1024" version="1.1" xmlns="http://www.w3.org/2000/svg" p-id="5463" xmlns:xlink="http://www.w3.org/1999/xlink" width="200" height="200"><defs><style type="text/css"></style></defs><path d="M656 240V16H144v992h736V240z" fill="#C5BCDD" p-id="5464"></path><path d="M710.256 792.704l-111.456-111.472a32.24 32.24 0 0 0-45.568 45.568l111.472 111.472a32.208 32.208 0 1 0 45.552-45.568z" fill="#8DA7B6" p-id="5465"></path><path d="M448 576m-176 0a176 176 0 1 0 352 0 176 176 0 1 0-352 0Z" fill="#C5E8FA" p-id="5466"></path><path d="M656 16v224h224z" fill="#9D90C5" p-id="5467"></path><path d="M448 448a16 16 0 1 0 0 32 96 96 0 0 1 96 96 16 16 0 1 0 32 0 128 128 0 0 0-128-128z m192 128c0-106.032-85.968-192-192-192s-192 85.968-192 192c0 106.048 85.968 192 192 192 35.36 0 68.384-9.712 96.832-26.4l107.904 107.904a48.624 48.624 0 1 0 68.768-68.768l-107.888-107.904A190.88 190.88 0 0 0 640 576zM448 736c-88.352 0-160-71.648-160-160s71.648-160 160-160 160 71.648 160 160-71.648 160-160 160z m251.024 68.288a16.08 16.08 0 1 1-22.752 22.752l-104.432-104.432c8.208-6.944 15.808-14.544 22.752-22.752l104.432 104.432z m196.88-564.464a15.536 15.536 0 0 0-4.464-10.48L666.656 4.56a15.376 15.376 0 0 0-10.336-4.432L656 0H160a32 32 0 0 0-32 32v960a32 32 0 0 0 32 32h704a32 32 0 0 0 32-32V240.432 240l-0.096-0.176zM672 54.096L841.904 224H672V54.096zM864 992H160V32h480v224h224v736z" fill="#2B3139" p-id="5468"></path></svg>