<?xml version="1.0" standalone="no"?><!DOCTYPE svg PUBLIC "-//W3C//DTD SVG 1.1//EN" "http://www.w3.org/Graphics/SVG/1.1/DTD/svg11.dtd"><svg t="1581666656025" class="icon" viewBox="0 0 1024 1024" version="1.1" xmlns="http://www.w3.org/2000/svg" p-id="7992" xmlns:xlink="http://www.w3.org/1999/xlink" width="200" height="200"><defs><style type="text/css"></style></defs><path d="M672 240V16H160v448h736V240H672zM480 1008h96V720h-96v288z m-320 0h96V720h-96v288z m160 0h96V720h-96v288z m480 0h96V720h-96v288z m-160 0h96V720h-96v288z" fill="#EDF2F9" p-id="7993"></path><path d="M912 592a32 32 0 1 0-0.016-64.016A32 32 0 0 0 912 592zM16 656v64h992v-64H16z" fill="#66B1E2" p-id="7994"></path><path d="M16 464h992v192H16z" fill="#A0DAF7" p-id="7995"></path><path d="M672 16v224h224z" fill="#D2DCE7" p-id="7996"></path><path d="M80 608h96a16 16 0 1 0 0-32H80a16 16 0 1 0 0 32z m912-160h-80V240l-0.096-0.176a15.536 15.536 0 0 0-4.464-10.48L682.656 4.56a15.376 15.376 0 0 0-10.336-4.432L672 0H176a32 32 0 0 0-32 32v416H32a32 32 0 0 0-32 32v224a32 32 0 0 0 32 32h112v288h128V736h32v288h128V736h32v288h128V736h32v288h128V736h32v288h128V736h80a32 32 0 0 0 32-32V480a32 32 0 0 0-32-32zM688 54.096L857.904 224H688V54.096zM176 32h480v224h224v192H176V32z m64 960h-64V736h64v256z m160 0h-64V736h64v256z m160 0h-64V736h64v256z m160 0h-64V736h64v256z m160 0h-64V736h64v256z m112-288H32v-32h960v32z m0-64H32V480h960v160zM80 544h96a16 16 0 1 0 0-32H80a16 16 0 1 0 0 32z m832 64a48 48 0 1 0 0-96 48 48 0 0 0 0 96z m0-64a16 16 0 1 1 0 32 16 16 0 1 1 0-32z" fill="#2B3139" p-id="7997"></path></svg>